<?xml version="1.0" encoding="UTF-8" standalone="no"?>
<!-- Created with Inkscape (http://www.inkscape.org/) -->
<svg id="svg5267" xmlns:rdf="http://www.w3.org/1999/02/22-rdf-syntax-ns#" xmlns="http://www.w3.org/2000/svg" height="229.74mm" width="934.72mm" version="1.1" xmlns:cc="http://creativecommons.org/ns#" xmlns:dc="http://purl.org/dc/elements/1.1/" viewBox="0 0 3311.9999 814.04685">
	<g id="layer2" transform="translate(1163.2 -2891.1)">
		<g id="g3740">
			<path id="path5831" style="fill:#0ff;fill-rule:evenodd" d="m2900-22.623-236 264-91.9-60.28-90.1-82.723-141.2 47.703-88.8-111.7-129.4 104.93-58.6-19.93-55.5 77.11-89.5-141.19-34.2 146.37-55.3-69.94-87.8-30.9-94.3-100.83-55.3 102.46-89.5-17.89-108.9-56.922-161 161.01l-65.055-56.924-153.69 210.62-204.11 60.988-84.57-56.924-65.055 22.77-121.98-104.09-67.658 33.828-49.441-77.74-43.91 148.81 440.74 87.824 507.43-49.604 369.93-69.291 1529.8 109.06 12.285-188.2-85.398-60.408-43.936 50.696-62.646-24.272z" transform="translate(-1163.2 2929.7)"/>
			<path id="path5827" style="fill:#0f0;fill-rule:evenodd" d="m3312-38.623-84 336-76-98-130 150-10-112l-112-260-90 31.997-146 232-102.6-48.53-79.4-94.473-66.2-24.59-95.3 91.833-68.5-131.24-66.4-17.832-65.6 127.83-56-25-72 100-73.018-164.08-34.154 146.37-55.295 37.406v-107.34l-87.824-30.9-92.703 134.99-45.537 14.637 43.9-250.46-55.3 102.46-89.5-17.89 43.9 195.16-73.1 65.06-79.7-317.14-161 161.01-30.9 81.318-34.154-138.24-117.1 32.527-100.83 180.53-110.59 11.385-29.273 47.164-76.439 8.1309-8.1308-65.055-65.055 22.77-105.77-22.78-16.27-81.31-104.08 52.04-13.02-95.95-159.38 34.15-261.6 145.49-0.12 374.55h1919.9l-0.336-251.76 1392.4 251.8z" transform="translate(-1163.2 2929.7)"/>
			<path id="path5833" d="m-1163.2 3269.9 134.41 196.53-134.41 13.593z" style="fill:#f00;fill-rule:evenodd"/>
			<path id="path5837" style="fill:#800080;fill-rule:evenodd" d="m2632 465.38-504.28 65.589-208.16-41.872-356.29 28.98-107.87-16.102-82.111 31.396-193.94 1.252l-181.15-32.66-540.96 45.89-138.47-29.79 15.3 101.43 980.28-21.51-38.3 29.39 815 49 945-2 276-195.54-403 69.538z" transform="translate(-1163.2 2929.7)"/>
			<path id="path5835" style="fill:#f0f;fill-rule:evenodd" d="m2632 465.38-469.34 102.19-243.1-78.477-356.29 28.98-107.87-16.102-99.822 64.4l-357.45-64.4-536.13 106.26-143.3-90.16-318.72 32.24v225.07h1919.9 1392.1v-142-154.54l-260 78.538-157.97 43.051z" transform="translate(-1163.2 2929.7)"/>
		</g>
	</g>
</svg>
