<?xml version="1.0" encoding="UTF-8" standalone="no"?>
<!-- Created with Inkscape (http://www.inkscape.org/) -->
<svg id="svg3739" xmlns:rdf="http://www.w3.org/1999/02/22-rdf-syntax-ns#" xmlns="http://www.w3.org/2000/svg" height="167.54mm" width="259.09mm" version="1.1" xmlns:cc="http://creativecommons.org/ns#" xmlns:dc="http://purl.org/dc/elements/1.1/" viewBox="0 0 918.0298 593.65808">
	<metadata id="metadata3744">
		<rdf:RDF>
			<cc:Work rdf:about="">
				<dc:format>image/svg+xml</dc:format>
				<dc:type rdf:resource="http://purl.org/dc/dcmitype/StillImage"/>
				<dc:title/>
			</cc:Work>
		</rdf:RDF>
	</metadata>
	<g id="layer1" transform="translate(1124.3 144.68)">
		<path id="path3725" style="fill:#b3b3b3;fill-rule:evenodd" d="m-281.32 357.44c-2.0777 1.1817-3.9277-2.9493-6.25-3.515-3.6709-0.89424-8.5166-2.1341-11.328 0.39-1.3703 1.2302 0.0415 3.8218-0.782 5.469-0.57645 1.153-1.5512 2.2225-2.734 2.735-3.7055 1.6056-8.3138 1.7704-12.109 0.39-6.2395-2.2694-10.814-8.0047-14.844-13.281-1.0605-1.3884-0.9554-3.6277-2.344-4.688-0.52763-0.40288-1.3249-0.60499-1.953-0.39-2.4452 0.83696-3.8613 3.5789-5.078 5.859-1.3979 2.6196-0.58218 6.2039-2.344 8.594-1.0073 1.3665-2.6609 2.2809-4.297 2.734-4.7701 1.3212-13.281-0.39-14.844-0.39-1.562 0-1.7488 1.1999-2.734 1.562-1.9895 0.73124-4.2107 1.75-6.25 1.172-1.8623-0.52786-2.5092-3.1639-4.297-3.906-7.3446-3.0488-17.862-6.43-23.828-1.172-1.2736 1.1225-0.0389 3.4172-0.391 5.078-0.88813 4.1897-1.6496 8.7416-4.296 12.109-10.578 13.459-26.6 23.115-42.969 28.125-17.184 5.2597-36.085 3.0983-53.906 0.782-6.7047-0.87145-13.457-2.5013-19.532-5.469-6.1072-2.9835-9.9132-10.098-16.406-12.109-10.579-3.2758-22.848-2.7565-33.203 1.171-6.3132 2.3946-9.7863 9.4998-15.625 12.891-6.9845 4.0566-23.427 0.55382-22.656 8.594 0.65591 6.8399 14.665-0.40039 20.312 3.515 5.0835 3.5249 8.4172 9.9046 9.375 16.016 0.74351 4.7441 1.1542 11.884-3.125 14.063-5.8202 2.9638-11.601-6.3634-17.969-7.813-10.164-2.3136-22.02-6.0163-31.25-1.172-1.5032 0.78896-1.0979 3.8438-2.734 4.297-2.8057 0.77725-4.9619-3.3117-7.812-3.906-2.4252-0.50571-5.109 1.2775-7.422 0.39-1.891-0.72559-2.3982-3.5912-4.297-4.296-8.2016-3.0441-17.447 1.3103-26.172 1.953-7.1608 0.52749-14.377 2.586-21.484 1.562-7.7079-1.1105-14.573-5.4954-21.875-8.203-3.9011-1.4466-7.5869-3.8105-11.719-4.297-2.2136-0.26061-4.6353-0.19116-6.641 0.781-1.16 0.56223-1.5111 2.3273-2.734 2.735-3.494 1.1649-7.4055-2.6053-10.938-1.563-3.8064 1.1232-5.4262 6.0544-8.984 7.813-9.2944 4.594-20.139 5.3668-30.469 6.25-16.355 1.3983-33.07-4.5015-49.219-1.563-6.3755 1.1601-11.606 6.1876-17.968 7.422-15.212 2.9518-31.021-1.3743-46.485-0.39-11.541 0.73456-22.89 6.0358-34.375 4.687-4.2986-0.5048-8.0239-6.117-12.109-4.687-1.7071 0.59757-1.0634 3.9938-2.734 4.687-5.2218 2.1666-10.905-2.9982-16.407-4.297-7.3815-1.7424-15.388-1.4885-22.265-4.687-4.7944-2.2299-7.5702-7.854-12.5-9.766-17.411-6.7531-38.271-10.572-55.86-4.297-3.7296 1.3307-5.208 6.148-8.593 8.203-4.8222 2.9276-10.52 4.1948-16.016 5.469-7.0326 1.6306-14.271 3.0271-21.484 2.735-5.0524-0.20457-11.446 0.61853-14.844-3.126-1.5847-1.7462-1.2931-4.7292-0.781-7.031 0.5965-2.681 2.1467-5.3211 4.296-7.031 3.5445-2.8199 10.032-0.78387 12.891-4.297 2.8136-3.4574-1.325-9.8856 1.563-13.281 2.4565-2.8882 8.3525-0.35081 10.937-3.125 1.7234-1.8499-0.046-5.4719 1.563-7.422 1.7083-2.0702 5.09-1.7943 7.421-3.125 4.9303-2.8146 8.0167-9.6591 13.672-10.156 4.3506-0.38227 8.9501 2.4816 11.719 5.859 1.8826 2.2962-0.1463 6.9768 2.344 8.594 1.4363 0.93273 3.9769 0.53067 5.078-0.781 7.7878-9.277-3.9831-24.647-0.781-36.329 1.8243-6.6554 5.1244-13.858 10.937-17.578 3.5369-2.2634 9.721 1.5859 12.5-1.562 0.9479-1.0738-0.9658-3.2393 0-4.297 0.9698-1.0621 3.4424 0.7658 4.297-0.391 4.5067-6.1001-4.0214-14.71-4.687-22.265-0.7203-8.1758-1.8104-16.822 0.781-24.61 2.5091-7.5404 6.6924-15.731 13.672-19.531 3.0898-1.6822 8.5235 2.4869 10.547-0.391 1.7289-2.459-3.1755-5.6195-2.735-8.593 1.482-10.004 8.2379-20.292 17.188-25 1.7285-0.9092 4.5451 1.4449 5.859 0 1.8479-2.0322-1.0918-5.4739-0.781-8.203 1.1649-10.228 3.9786-20.783 9.765-29.297 2.3898-3.5161 5.7714-6.748 9.766-8.203 5.0162-1.8272 10.781-1.0469 16.016 0 3.3196 0.66389 7.2408 1.2781 9.375 3.906 1.7548 2.1607-0.5824 6.4284 1.562 8.203 0.70236 0.58123 2.1377 0.68873 2.735 0 3.6194-4.1733-3.1551-10.942-2.344-16.406 0.63294-4.264 1.9907-9.1726 5.469-11.719 2.4368-1.784 6.0002-1.6384 8.984-1.172 7.2512 1.1335 14.862 4.059 19.922 9.375 1.6505 1.734 0.94404 5.0514 2.734 6.641 4.3464 3.8599 11.148 3.3161 16.797 4.687 3.7472 0.90938 7.703 1.0294 11.328 2.344 3.8883 1.4101 7.5626 3.4686 10.938 5.859 5.0393 3.5688 7.9852 10.094 13.672 12.5 6.0065 2.5416 16.63 7.0132 19.531 1.172 0.53399-1.0751-1.9024-1.6177-2.344-2.734-5.3696-13.574-4.5096-29.378-1.953-43.75 1.8296-10.285 6.2878-20.232 12.109-28.906 8.1064-12.08 17.159-25.969 30.86-30.86 7.3943-2.6395 15.92 0.079 23.437 2.344 5.0751 1.5291 11.113 11.826 14.063 7.422 0.56593-0.84499-1.5672-1.2966-2.344-1.953-1.8339-1.5499-4.3621-2.5573-5.469-4.688-5.0052-9.6349 0.51674-22.194-3.125-32.422-0.78729-2.2112-3.3191-3.5864-3.906-5.859-4.3452-16.825-2.8116-36.097 4.297-51.953 3.0141-6.7233 8.2738-13.599 15.234-16.016 4.3488-1.5103 9.08 1.6267 13.672 1.953 4.2862 0.30459 9.1518 2.1171 12.891 0 3.3032-1.8703 2.578-7.856 5.859-9.765 9.5689-5.5676 22.152-1.4461 33.203-0.782 10.9 0.65506 22.448 0.2436 32.422 4.688 6.5024 2.8973 10.549 9.6256 16.406 13.672 5.6605 3.9109 12.892 5.5131 17.969 10.156 3.3851 3.0954 3.7518 9.1956 7.813 11.328 3.3432 1.7554 7.818-1.392 11.328 0 5.6512 2.2412 8.0952 9.3272 13.281 12.5 3.3022 2.0203 7.1954 4.8994 10.937 3.906 1.1602-0.30804 1.9476-1.6009 2.344-2.734 4.8187-13.774-6.4396-29.997-1.562-43.75 2.7144-7.6538 8.6008-15.046 16.015-18.359 9.1543-4.0909 20.091-0.50204 30.078 0.39 3.1556 0.28185 6.7254 3.2998 9.375 1.563 0.44916-0.29442 0.32534-1.03 0.391-1.563 0.82777-6.7199-1.8586-13.801 0-20.312 1.5572-5.4547 3.9158-11.905 8.984-14.453 1.401-0.70431 3.2478 1.0101 4.688 0.39 0.76564-0.32967 1.2985-1.1621 1.562-1.953 5.229-15.696-6.8254-33.924-1.562-49.609 3.0342-9.0419 9.4838-17.911 17.969-22.266 6.1494-3.156 14.253 1.312 20.703-1.172 9.6781-3.7271 14.82-15.147 24.219-19.531 7.3361-3.4218 15.771-3.9021 23.828-4.687 6.2206-0.60599 12.761-1.7871 18.75 0 4.3256 1.2907 7.0237 6.0606 11.328 7.421 3.8507 1.217 8.2571-0.82206 12.109 0.391 17.051 5.3699 28.042 35.185 44.922 29.297 0.77761-0.27126 0.74944-1.521 0.781-2.344 0.14401-3.7551-3.737-7.3155-2.734-10.937 0.983-3.5492 4.7832-5.7179 7.812-7.813 4.9366-3.4147 10.847-9.6848 16.407-7.422 2.9788 1.2124 1.038 6.9338 3.515 8.985 1.6326 1.3519 4.4173 0.10707 6.25 1.172 11.662 6.7763 21.679 18.142 26.172 30.859 50.153 141.97 119.94 377.12-10.937 451.56z"/>
	</g>
</svg>
