<svg id="svg4314" xmlns:rdf="http://www.w3.org/1999/02/22-rdf-syntax-ns#" xmlns="http://www.w3.org/2000/svg" height="56.444mm" width="612.21mm" version="1.1" xmlns:cc="http://creativecommons.org/ns#" xmlns:dc="http://purl.org/dc/elements/1.1/" viewBox="0 0 2169.2349 200.00002">
	<g id="layer1" transform="translate(20825 -4771.4)">
		<path id="path4297" style="fill:#808080;fill-rule:evenodd" d="m-20825 4771.4v170.57s29.594 20.389 56.76 23.15c16.246 1.6514 21.382-11.054 41.619-16.795 13.602-3.8592 41.614-1.3631 55.926-1.2997 13.317 0.06 16.54-13.305 30.064-9.4582 9.842 2.7996 15.119 16.015 27.265 22.186 15.787 8.0225 38.666 8.9153 51.862 8.5602 7.921-0.2122 44.627-20.68 52.027-22.61 27.449-7.1604 10.807 5.8447 40.422 5.5795 13.789-0.1232 30.213 9.3366 45.495 11.012 26.387 2.8929 27.506-5.3421 51.322-2.4967 13.024 1.556 18.306-4.9684 35.876-8.5937 36.538-7.5396 61.951-0.086 87.148 11.787 30.905 14.564 73.271 7.021 112.83 1.0647 16.267-2.4495 38.795 0.1127 40.739-13.768 1.842-13.159 32.597 11.239 61.172 4.1886 16.967-4.1857 48.802-5.2082 63.4 8.7859 0 0 32.527-7.0921 67.307-3.4233 37.641 3.9704 36.074-19.688 51.28-22.393 18.466-3.2846 48.731-24.367 59.624-11.724 14.475 16.8 52.481 15.981 52.481 15.981 11.021 12.267 44.769 21.925 56.76 23.417 16.243 1.6514 21.379-11.054 41.616-16.795 13.605-3.8592 41.614-1.3631 55.927-1.2997 13.319 0.06 16.539-13.305 30.066-9.4582 9.842 2.7996 15.117 16.015 27.262 22.186 15.79 8.0225 38.666 8.9153 51.865 8.5602 7.921-0.2122 44.627-20.68 52.025-22.61 27.448-7.1604 10.809 5.8447 40.424 5.5795 13.788-0.1232 30.21 9.3366 45.492 11.012 26.387 2.8929 27.506-5.3421 51.323-2.4967 13.023 1.556 18.308-4.9684 35.875-8.5937 36.541-7.5396 61.953-0.086 87.148 11.787 30.905 14.564 73.274 7.021 112.83 1.0647 16.269-2.4495 38.794 0.1127 40.738-13.768 1.845-13.159 32.598 11.239 61.175 4.1886 16.965-4.1857 48.799-5.2082 63.4 8.7859 0 0 32.524-7.0921 67.307-3.4233 37.639 3.9704 36.072-19.688 51.278-22.393 18.465-3.2846 48.733-24.367 59.626-11.724 14.475 16.8 52.478 15.981 52.478 15.981v-170.3h-2169.2z"/>
	</g>
</svg>
