<svg id="svg3739" xmlns:rdf="http://www.w3.org/1999/02/22-rdf-syntax-ns#" xmlns="http://www.w3.org/2000/svg" height="153.68mm" width="383.69mm" version="1.1" xmlns:cc="http://creativecommons.org/ns#" xmlns:dc="http://purl.org/dc/elements/1.1/" viewBox="0 0 1359.517 544.53075">
	<g id="layer1" transform="translate(1537.9 77.201)">
		<path id="path3725" style="fill:#b3b3b3;fill-rule:evenodd" d="m-1321.3 467.32c3.2587 0.23297 3.841-4.5289 6.6392-6.0771 4.4231-2.4474 10.235-5.7349 15.059-4.5328 2.351 0.58589 1.6549 3.6823 3.4746 4.9046 1.2734 0.85568 3.0328 1.4588 4.8161 1.4379 5.5873-0.0657 11.716-1.9038 16.085-4.8711 7.1827-4.8784 10.627-12.358 13.561-19.163 0.7722-1.7905-0.3679-3.8918 0.9822-5.5098 0.5131-0.61483 1.4702-1.1539 2.3915-1.2198 3.5874-0.25672 6.675 1.7587 9.2938 3.4177 3.009 1.906 3.5409 5.6957 6.9254 7.224 1.9351 0.8738 4.5169 1.0341 6.8693 0.75993 6.8588-0.79956 17.276-6.1266 19.329-6.8036 2.0523-0.67659 2.8348 0.39286 4.2912 0.3133 2.9414-0.16074 6.3155-0.14604 8.7364-1.5835 2.2108-1.3128 1.8813-4.1202 3.8981-5.606 8.2862-6.1043 20.592-13.902 30.784-11.445 2.1758 0.52445 1.5805 3.2593 2.786 4.6991 3.0418 3.6321 6.0791 7.6664 11.063 9.7485 19.921 8.3222 45.294 10.639 69.043 8.3523 24.932-2.4005 48.8-12.66 71.178-22.6 8.4196-3.7396 16.562-8.227 23.216-13.704 6.6894-5.5057 8.5066-13.976 16.138-18.716 12.434-7.7229 28.788-12.54 44.15-13.259 9.3667-0.43883 17.109 4.8689 26.298 5.591 10.992 0.86387 31.029-9.6165 33.614-1.5741 2.1988 6.8418-19.448 5.9684-25.116 12.168-5.1021 5.5814-6.6275 13.142-5.1515 19.416 1.1459 4.8704 3.8013 11.893 10.399 12.129 8.9736 0.32037 12.395-11.126 20.114-15.274 12.319-6.6207 26.241-15.306 40.536-14.66 2.3281 0.10528 3.1626 3.2096 5.515 2.9354 4.0342-0.47012 5.0377-5.3243 8.5166-7.1286 2.9603-1.5353 7.2845-0.98817 9.9264-2.8409 2.1599-1.5147 1.5441-4.4818 3.7236-5.98 9.4141-6.4709 23.511-6.3011 35.262-9.464 9.6448-2.596 28.634 22.516 37.514 18.456 9.6307-4.4034 37.903 28.32 46.285 22.561 4.4784-3.0766 8.2635-6.9395 13.475-9.1957 2.7919-1.2087 6.0048-2.191 9.0752-2.1278 1.7757 0.0366 3.0269 1.5767 4.8161 1.4379 5.112-0.39655 8.5645-5.7055 13.672-6.2363 5.504-0.57193 9.8388 3.4542 15.3 3.5992 14.268 0.37855 68.258 20.666 82.227 17.038 22.115-5.7436 41.437-18.64 63.971-22.818 8.896-1.6493 18.019 0.90487 26.93-0.66712 21.308-3.759 40.144-14.754 60.903-20.509 15.493-4.2947 32.776-4.1279 47.263-10.396 5.4222-2.3459 7.8057-9.3401 13.813-9.7386 2.5104-0.16654 3.1843 3.3684 5.6895 3.3093 7.8306-0.18465 12.986-7.5978 19.635-11.226 8.919-4.8678 19.553-8.0924 27.157-14.138 5.3016-4.2146 6.4324-10.809 12.054-14.777 19.855-14.016-22.126-94.393 3.7928-95.996 5.4958-0.3397 8.0787-19.09 13.446-18.586 7.646 0.71801 15.7-0.5353 23.491-1.694 9.9699-1.4828 20.105-3.2792 29.452-6.6836 6.5469-2.3846 15.316-4.3648 18.105-9.4266 1.3008-2.3606-0.41712-5.0941-2.1199-7.0791-1.9834-2.312-5.2016-4.1716-8.7907-4.88-5.919-1.1683-13.532 3.5938-18.861 1.4641-5.2439-2.096-2.6825-10.052-7.9964-12.056-4.52-1.7049-11.132 3.2815-15.769 1.7413-3.0922-1.027-2.388-5.266-5.3747-6.4387-3.1709-1.2449-7.4908 0.48446-11.149 0.21835-7.7374-0.56288-14.855-5.788-22.508-3.8148-5.8874 1.518-10.649 6.256-12.776 10.693-1.4461 3.0169 3.3141 6.6255 0.76566 9.2546-1.4698 1.5164-4.9879 2.2314-7.0216 1.4508-14.384-5.5209-5.7954-25.356-15.23-35.168-5.375-5.5906-12.934-11.067-22.236-12.115-5.66-0.63793-12.063 5.7311-17.123 3.9168-1.726-0.61888-0.18048-3.5239-1.9228-4.1197-1.7495-0.59818-4.1804 2.2253-5.8209 1.4864-8.6511-3.8963-1.2984-15.845-3.8044-23.376-2.7119-8.1504-5.1487-16.912-12.038-23.256-6.6708-6.1424-15.832-12.183-26.703-12.803-4.8125-0.27444-10.086 6.0762-14.033 4.1936-3.3719-1.6086 1.6578-6.7631-0.25147-9.423-6.4235-8.9489-19.904-15.886-33.77-16.523-2.6779-0.123-5.3253 3.354-7.6983 2.5378-3.3373-1.1479-1.0148-5.721-2.6444-8.2028-6.1071-9.3011-14.527-18.202-25.94-23.858-4.7133-2.3359-10.603-3.9696-16.502-3.6343-7.4086 0.42101-14.634 3.666-21.044 6.9373-4.0647 2.0744-8.9419 4.3617-10.57 7.8056-1.3388 2.8316 3.6417 5.9108 1.6182 8.541-0.66276 0.86147-2.5006 1.5862-3.5936 1.1847-6.6231-2.4333-0.75043-11.857-4.2613-16.744-2.7396-3.8139-6.72-7.9318-12.43-8.8665-4-0.65484-8.6169 1.0282-12.329 2.7678-9.0203 4.2275-17.711 10.329-21.981 17.617-1.3928 2.3773 1.0199 5.2518-0.62066 7.5512-3.9836 5.5832-13.164 8.0081-19.973 11.769-4.5166 2.495-9.6606 4.3235-13.835 7.154-4.478 3.0361-8.3846 6.6012-11.75 10.355-5.0243 5.6043-5.9753 13.136-12.371 17.906-6.7548 5.0383-18.712 13.927-25.138 9.5834-1.1827-0.79943 1.7758-2.375 1.8565-3.6365 0.98117-15.34-7.2202-30.119-17.01-42.79-7.0062-9.0682-17.315-16.673-28.845-22.468-16.056-8.0699-34.166-17.465-54.356-16.219-10.897 0.67232-20.882 6.9713-29.746 12.399-5.9841 3.6643-9.3105 16.152-15.157 13.207-1.1217-0.56499 1.4791-1.9219 2.2059-2.8877 1.7161-2.2803 4.5872-4.3412 5.0882-6.8634 2.2652-11.405-10.61-21.054-10.402-32.438 0.045-2.461 2.7562-4.876 2.5105-7.3091-1.8192-18.013-12.458-35.825-28.893-47.948-6.9688-5.1402-16.956-9.4537-27.183-8.7564-6.3898 0.43568-11.203 5.4925-17.09 7.7944-5.4954 2.1486-11.077 5.9938-16.938 5.5837-5.1771-0.36228-6.9026-6.4151-12.068-6.8242-15.064-1.1931-29.753 8.2088-43.976 13.632-14.029 5.3494-29.385 9.9567-40.502 18.538-7.2472 5.5943-9.5538 13.798-15.439 20.214-5.6875 6.2013-14.472 10.87-19.065 17.52-3.0627 4.4339-0.8148 10.441-5.1968 14.245-3.6071 3.131-10.895 2.0517-14.884 4.9067-6.4224 4.5965-6.4628 12.449-11.857 17.737-3.4346 3.3672-7.2619 7.8139-12.623 8.4822-1.6622 0.20721-3.2754-0.69124-4.3032-1.6059-12.495-11.118-4.9612-31.548-17.524-42.621-6.9913-6.1622-18.033-10.699-29.258-10.664-13.859 0.04308-26.623 8.221-39.346 13.402-4.02 1.637-7.36 6.0767-11.619 5.5593-0.7218-0.08774-0.8883-0.84656-1.2131-1.3291-4.0944-6.084-3.7337-14.037-9.0888-19.474-4.4868-4.5551-10.472-9.7177-18.272-9.9651-2.1557-0.06845-3.8152 2.3752-5.985 2.4045-1.1535 0.01555-2.2262-0.55172-2.9264-1.1958-13.894-12.784-6.2115-35.481-20.146-48.238-8.0326-7.3545-20.475-13.064-33.573-13.564-9.4921-0.36218-18.14 7.4314-27.727 7.8439-14.384 0.61877-26.25-8.1026-40.561-8.2345-11.17-0.103-22.468 3.0902-33.406 5.8275-8.4444 2.1134-17.566 3.8141-24.636 8.1215-5.1061 3.1111-6.5168 8.8528-11.564 12.021-4.5149 2.8347-11.217 2.7884-15.735 5.6199-20.002 12.534-21.101 45.88-45.915 47.546-1.143 0.07673-1.6653-1.1337-2.075-1.909-1.8694-3.5378 1.6368-8.6323-1.3016-11.67-2.8797-2.977-8.8432-3.4101-13.76-4.1068-8.0143-1.1355-18.586-4.5867-24.879-0.009-3.3712 2.4526 1.7389 7.0973-0.5979 10.137-1.5401 2.0032-5.756 2.016-7.6877 3.8308-12.29 11.548-20.367 26.783-20.58 40.922-2.3729 157.83 11.158 413.51 216.43 428.19z"/>
	</g>
</svg>
