<svg id="svg3739" xmlns:rdf="http://www.w3.org/1999/02/22-rdf-syntax-ns#" xmlns="http://www.w3.org/2000/svg" height="99.753mm" width="235.79mm" version="1.1" xmlns:cc="http://creativecommons.org/ns#" xmlns:dc="http://purl.org/dc/elements/1.1/" viewBox="0 0 835.47614 353.45548">
	<g id="layer1" transform="translate(284.45 -287.45)">
		<path id="path3727" style="fill:#666;fill-rule:evenodd" d="m529.88 388.2c-0.62106 1.2972 2.0067 2.666-2.92 3.5163-4.926 0.85027-7.8213-4.4329-12.347-5.7762-3.3706-1.0004-7.0325-1.3694-10.569-1.5644-2.8609-0.15775-3.409-1.2951-8.4498 0.32826s-19.184 3.8677-24.144 9.0623c-3.4721 29.555 3.5065 20.542-14.168 38.97-4.6639 5.1297-13.515 9.0138-14.261 15.264-13.262 7.4453 37.677 69.859 10 88.428-27.621-18.561-67.092 58.279-92.71 37.038-7.2737-6.9618-13.092 0.59575-5.9861 20.275 8.1064 22.451 28.613 57.253 5.7066 44.389-18.879-10.603-54.742-34.557-95.055-41.742-71.149-12.68-116.39-8.8207-142.57-14.704 5.74 14.965-47.723 16.216-63.675 13.98-11.519-1.6636-20.653-8.9656-31.853-11.823-7.9979-2.0401-17.374-0.45611-24.663-3.6507-1.9633-0.86051-2.2766-2.9262-4.24-3.7867-8.3298-3.6508-18.919-2.2012-28.185-4.1721-10.222-2.1741-19.566-7.1178-29.961-8.3835-16.289-1.9832-32.012 1.7247-48.234 1.5479-8.2948-0.0904-16.665-0.81019-25.005-1.3328-13.849-0.86781-28.03 0.11632-41.562-2.993-7.7778-1.7872-14.166-6.0543-21.513-8.712-7.4807-2.7059-14.877-7.3818-22.916-7.3416-6.64 0.0332-10.602 4.6504-16.525 6.2416-6.2217 1.6715-12.693 4.3657-19.705 3.4013-5.6125-0.77184-10.147-4.2147-14.58-6.8963-5.2735-3.1898-12.924-6.268-14.01-10.761-1.4924-6.1767 4.599-12.493 11.912-15.612 4.5486-1.94 12 0.90985 16.9-0.65751 4.3876-1.4034 4.8581-6.187 9.4793-7.2835 8.1829-1.9414 18.389 3.069 27.239 2.4519 7.233-0.5044 12.535-5.9436 19.934-4.9464 3.1616 0.42614 4.6012 4.2024 7.7635 4.3082 10.849 0.36304 14.955-9.3656 23.542-13.101 11.736-5.1049 23.385-11.506 37.862-12.559 4.9784-0.36245 10.982 0.0452 15.267 2.2598 4.0234 2.0794 2.4024 7.8276 7.0772 8.9447 2.9912 0.71478 4.5627-2.8686 7.619-2.8208 5.3223 0.0832 10.398 7.0001 14.809 5.3511 2.615-0.97746 1.0484-4.3232-0.25884-6.3564-4.2808-6.6582-17.076-9.7802-22.833-16.016-7.0218-7.6057-13.386-16.432-13.123-24.845 0.41841-13.389 4.0983-32.61 23.222-35.262 6.1768-0.85665 11.988 10.527 16.814 8.0174 5.7502-2.9904-9.3961-9.682-9.7984-14.876-0.44026-5.685 7.5412-9.786 8.2738-15.36 0.80713-6.1377-6.1285-12.838-4.4144-18.818 1.9037-6.6418 11.251-10.741 15.663-16.636 4.6611-6.2285 3.0108-15.56 11.31-19.65 4.9875-2.4579 13.389-3.4382 19.362-1.0825 8.9938 3.5468 5.5776 14.502 14.04 18.663 8.743 4.2986 22.894-2.0623 30.762 2.9744 7.2539 4.6436-1.7328 14.398 5.5901 18.991 3.061 1.9202 8.0529 1.363 11.857 0.96566 15.144-1.5817 24.657-15.227 40.326-12.985 5.3282 0.76231 6.792 6.8564 12.003 8.0949 5.3364 1.2682 10.466-2.7646 15.839-1.6041 5.0292 1.0864 8.4474 4.6312 12.118 7.3223 3.981 2.9188 5.2118 9.9362 10.601 9.4663 4.209-0.367 0.44384-5.9197 2.4324-8.3276 3.2052-3.8812 11.6-4.9095 14.52-8.9069 1.148-1.5717-1.249-4.3559 0.80081-5.4101 10.286-5.2899 28.201 5.283 41.446 3.7654 5.359-0.61403 8.5261-4.5878 13.948-5.043 8.0114-0.67258 18.304-0.38996 24.662 3.6505 6.5221 4.1446 2.3571 11.779 7.1072 16.847 5.7505 6.1359 16.603 9.4455 24.236 14.645 4.9838 3.395 9.5426 7.0638 14.008 10.76 2.5963 2.149 5.1664 4.3244 7.4203 6.627 2.2766 2.3257 3.1069 5.2985 6.1304 7.2255 3.4476 2.1973 8.6513 5.351 12.575 4.231 3.4588-0.9873-0.11253-5.6803 2.318-7.555 1.4102-1.0877 4.9841-0.26212 6.2161-1.4484 4.6672-4.4943-2.6572-12.111 0.16726-17.351 2.4123-4.4747 10.125-6.5363 13.575-10.627 4.3032-5.1027 3.1588-12.314 8.5027-16.906 8.6749-7.454 21.73-12.986 35.857-15.226 10.458-1.6581 22.849-1.5598 33.34 1.7761 8.236 2.6187 13.583 8.4877 19.651 13.175 1.9328 1.493 2.664 5.1029 5.3011 4.7332 20.169-2.8268-2.0479-28.825 2.6538-42.254 3.7392-10.68 12.929-19.759 19.957-29.426 6.1009-8.3913 6.3691-21.189 19.271-24.789 13.826-3.8583 31.651 3.7697 46.861 7.726 16.713 4.3473 39.127 6.672 47.838 17.348 19.222 23.558-2.2557 51.244-13.446 74.617z"/>
	</g>
</svg>
