<svg id="svg3739" xmlns:rdf="http://www.w3.org/1999/02/22-rdf-syntax-ns#" xmlns="http://www.w3.org/2000/svg" height="85.99mm" width="225.92mm" version="1.1" xmlns:cc="http://creativecommons.org/ns#" xmlns:dc="http://purl.org/dc/elements/1.1/" viewBox="0 0 800.49258 304.68883">
	<g id="layer1" transform="translate(1409.6 -56.789)">
		<path id="path3727" style="fill:#666;fill-rule:evenodd" d="m-653.06 275.76c-12.523 1.6003-24.484 10.102-33.635 3.1384-4.5181-23.342 2.9625-15.902-15.844-31.3-4.9711-4.2722-14.219-7.7963-15.187-12.733-0.35823-1.8273 5.7248-3.6672 3.6809-5.1824-3.2316-2.3956-11.535-0.74719-17.157-0.2106-5.7888 0.55249-10.779 4.4958-16.303 3.459-4.441-0.83348-2.459-5.098-6.388-6.4391-5.135-1.7526-14.846 1.782-18.506-0.75046-7.1135-4.922 11.247-11.963 8.0632-17.849-1.6061-2.9697-6.6728-5.9353-12.556-6.689-6-0.76871-12.24 4.4443-17.651 2.9198-8.5542-2.4104-4.9761-9.6082-7.0354-14.463-2.645-6.2348-9.169-12.551-6.8264-18.817 0.96565-2.583 9.2103-4.1143 8.2167-6.6946-1.3727-3.5649-10.919-4.8351-17.378-6.3997-5.8977-1.4286-15.223 0.1451-18.931-2.5857-2.1165-1.5584 2.8616-3.9736 1.1273-5.6492-1.6182-1.5635-5.7999-2.0722-9.149-2.5518-4.7364-0.67828-10.098 0.46243-14.747-0.35597-5.6813-0.99998-8.6702-5.2251-14.681-5.3207-7.5969-0.12083-15.505 2.795-19.349 6.1225-3.7338 3.2316 3.5875 8.3114-1.0498 11.226-1.7971 1.1295-7.0007-0.17653-8.2941 1.1184-4.3471 4.3526 10.976 8.7595 10.507 13.633-0.42625 4.4362-5.0447 9.1154-11.897 11.878-5.1076 2.0589-16.462-0.67006-18.998 2.3798-2.747 3.3034 11.343 5.7088 10.716 9.2802-1.2693 7.2356-15.607 12.851-27.914 16.56-7.6845 2.3152-17.591 3.9764-26.23 2.8145-4.7084-0.63327-6.1949-4.3332-10.924-4.9262-19.901 6.8935-36.918 1.815-39.486 3.6091-2.2232 1.7638 6.1718 4.247 3.8343 5.9723-3.4455 2.543-12.425 1.4089-18.219 0.47234-6.5413-1.0574-10.616-4.4256-16.172-6.472-11.612-4.277-28.852-5.749-35.817-12.115-9.0684-8.2875 0.3957-19.008-1.7334-28.425-1.1571-5.1153-8.7557-10.195-5.973-15.146 29-12.645-3.7732-10.673-17.804-8.2349-3.5267 0.73981-1.1906 5.7389-4.8856 5.2547-15.134-1.9833-0.1627-15.982 3.0225-23.748 3.5409-8.6864 25.948-25.693 14.568-31.884-5.4182-2.7588-59.921-38.519-67.547-38.082-11.823 0.67671 31.136 54.472 19.68 56.101-8.1803 1.1632-30.04-15.588-37.453-13.481-9.0941 6.548-29.509-4.3844-39.604-3.3859-10.469 1.1473-1.373 39.512-12.05 39.938-16.73 0.66772-18.771-48.806-35.489-49.55-8.5483-0.38031-30.012-25.272-38.593-25.316-14.25-0.0734-28.186-11.616-42.037-9.9157-7.9617 0.97703-23.697 26.115-31.187 27.798-7.6261 1.7129 7.0401 37.831-1.2482 37.362-6.8463-0.38711-9.6492-20.648-15.806-22.217-11.554 15.265-18.262 25.035-4.6815 45.779 7.4727 0.7885 13.112 5.3379 20.708 4.9591 3.2459-0.16188 4.6101-3.0418 7.8667-2.9528 11.173 0.30564 15.715 8.1503 24.686 11.544 12.261 4.6374-21.24 65.999-6.2828 67.612 39.687-0.55416 6.8599 0.17323-2.2579 31.696 0.8567 10.512 25.975-12.088 45.774-8.9705 6.3951 1.007 49.167-30.452 54.222-28.223 6.023 2.6554-9.3791 7.0738-9.6289 11.121-0.2734 4.4296 8.0852 8.0764 9.0175 12.483 1.0271 4.8521-5.9103 9.724-3.9532 14.502 2.1735 5.3066 11.94 9.026 16.675 13.884 13.799 2.048 6.6699 21.934 32.279 17.91 9.1591-2.2893 5.2894-11.058 13.881-13.857 8.8768-2.892 23.667 2.8607 31.619-0.65709 7.3308-3.2432-2.2437-11.373 5.1598-14.573 20.304-4.4446 39.276 12.694 54.179 12.254 5.4687-0.3074 6.7842-5.0018 12.118-5.6886 18.933 9.7852 2.7779 55.752 13.553 56.63 25.94-30.686 28.245 51.103 39.022-19.866 10.772 4.7035 34.619-30.462 48.322-28.553 12.295 3.917 27.374 8.3153 39.848 3.1907 6.5922-2.8921 2.0559-9.0993 6.792-12.811 20.115-5.0819 35.755-19.189 52.15-27.937 3.4844-1.5338 8.7488-3.7214 12.83-2.6306 3.5972 0.96155 0.0652 4.4438 2.6297 6.0446 1.4884 0.92879 5.1466 0.47638 6.4544 1.4727 4.9543 3.7746-2.3547 9.3434 0.72348 13.601 2.6291 3.6366 10.646 5.6712 14.332 9.0632 4.5983 4.2314 3.6476 9.8188 9.3026 13.707 22.252 12.529 47.679 18.641 71.764 14.3 8.4075-1.6035 13.733-5.9105 19.84-9.2528 22.79-13.135 7.485 24.939 9.3925 29.826 4.194 8.5699 46.533-9.0715 54.086-1.1165 6.556 6.9055-25.338 42.2-11.924 45.722 14.376 3.7745 32.51-1.2317 48.065-3.5038 17.092-2.4967 12.883-15.344 24.522-16.544 7.199-0.74233 10.023-3.9892 4.4765-25.851-7.967-28.745 64.753-47.361-23.243-38.456z"/>
	</g>
</svg>
